<?xml version="1.0" encoding="utf-8"?>
<!-- Generator: Adobe Illustrator 19.0.0, SVG Export Plug-In . SVG Version: 6.00 Build 0)  -->
<svg version="1.1" id="Layer_1" xmlns="http://www.w3.org/2000/svg" xmlns:xlink="http://www.w3.org/1999/xlink" x="0px" y="0px"
	 viewBox="0 0 1920 536" style="enable-background:new 0 0 1920 536;" xml:space="preserve">
<style type="text/css">
	.st0{fill:#FFFFFF;stroke:#000000;stroke-width:5;stroke-miterlimit:10;}
	.st1{fill:none;stroke:#000000;stroke-width:5;stroke-miterlimit:10;}
	.st2{fill:#FFFFFF;stroke:#000000;stroke-width:5;stroke-linecap:round;stroke-linejoin:round;stroke-miterlimit:10;}
</style>
<g id="XMLID_6_">
	<path id="XMLID_5_" class="st0" d="M26.4,24.4v436.3c0,11.2,10.3,51.6,48.9,51.6h319.1c11.2,0,20.4-9.2,20.4-20.4V24.4H26.4z"/>
	<g id="XMLID_59_">
		<line id="XMLID_104_" class="st1" x1="56.5" y1="201.2" x2="147.5" y2="201.2"/>
		<line id="XMLID_103_" class="st1" x1="213.3" y1="201.2" x2="384.6" y2="201.2"/>
		<line id="XMLID_88_" class="st1" x1="167.9" y1="201.2" x2="195.9" y2="201.2"/>
		<line id="XMLID_87_" class="st1" x1="56.5" y1="223.3" x2="147.5" y2="223.3"/>
		<line id="XMLID_86_" class="st1" x1="276.7" y1="223.3" x2="384.6" y2="223.3"/>
		<line id="XMLID_85_" class="st1" x1="167.9" y1="223.3" x2="253.7" y2="223.3"/>
		<line id="XMLID_84_" class="st1" x1="384.6" y1="299" x2="293.7" y2="299"/>
		<line id="XMLID_83_" class="st1" x1="227.8" y1="299" x2="56.5" y2="299"/>
		<line id="XMLID_82_" class="st1" x1="273.3" y1="299" x2="245.2" y2="299"/>
		<line id="XMLID_80_" class="st1" x1="384.6" y1="255.6" x2="293.7" y2="255.6"/>
		<line id="XMLID_73_" class="st1" x1="227.8" y1="255.6" x2="56.5" y2="255.6"/>
		<line id="XMLID_72_" class="st1" x1="273.3" y1="255.6" x2="245.2" y2="255.6"/>
		<line id="XMLID_71_" class="st1" x1="384.6" y1="276.9" x2="293.7" y2="276.9"/>
		<line id="XMLID_70_" class="st1" x1="164.5" y1="276.9" x2="56.5" y2="276.9"/>
		<line id="XMLID_69_" class="st1" x1="273.3" y1="276.9" x2="187.4" y2="276.9"/>
		<line id="XMLID_68_" class="st1" x1="384.6" y1="364.4" x2="293.7" y2="364.4"/>
		<line id="XMLID_67_" class="st1" x1="227.8" y1="364.4" x2="56.5" y2="364.4"/>
		<line id="XMLID_66_" class="st1" x1="273.3" y1="364.4" x2="245.2" y2="364.4"/>
		<line id="XMLID_65_" class="st1" x1="384.6" y1="321.1" x2="293.7" y2="321.1"/>
		<line id="XMLID_64_" class="st1" x1="227.8" y1="321.1" x2="56.5" y2="321.1"/>
		<line id="XMLID_63_" class="st1" x1="273.3" y1="321.1" x2="245.2" y2="321.1"/>
		<line id="XMLID_62_" class="st1" x1="384.6" y1="342.3" x2="293.7" y2="342.3"/>
		<line id="XMLID_61_" class="st1" x1="164.5" y1="342.3" x2="56.5" y2="342.3"/>
		<line id="XMLID_60_" class="st1" x1="273.3" y1="342.3" x2="187.4" y2="342.3"/>
	</g>
	<g id="XMLID_56_">
		<path id="XMLID_58_" class="st2" d="M432.4,391.1l-343.2-0.4c0,0,35,26.9,35,61.5s-22.9,60.1-48.9,60.1l352.3,0.4
			c26,0,48.9-22,48.9-60.1S443.6,391.1,432.4,391.1z"/>
		<path id="XMLID_57_" class="st2" d="M26.4,452.2c0,41.4,23.4,60.1,48.9,60.1"/>
	</g>
	<g id="XMLID_3_">
		<path id="XMLID_17_" d="M180.3,72.7l-22.7,47.2c-8.5,17.7-15.5,33.2-20.9,46.5h-3.1c-1.9-4.5-7.3-16.2-16.2-34.9L90.1,74.8v59
			c0,13.7,0.6,21.6,1.7,23.4c1.1,1.9,4.5,2.8,10.2,2.8h2.8v4.8c-7.1-0.4-12.9-0.5-17.3-0.5c-3.2,0-9.6,0.2-19.2,0.5V160h5
			c3.4,0,5.6-0.5,6.7-1.5c1.1-1,1.8-2.7,2.1-5.3c0.7-7.1,1-14.8,1-23.1V87c0-10.4-0.2-17.3-0.7-20.7c-0.2-1.7-1-3.1-2.3-4
			c-1.3-0.9-3.9-1.4-7.8-1.4h-4v-4.8c8.9,0.4,14.4,0.5,16.7,0.5c2.9,0,7-0.2,12.4-0.5c6.2,13.7,13.3,28.8,21.3,45.3l20.1,41.3
			l18.6-38.3c6.5-13.4,14-29.5,22.3-48.4c6.4,0.4,10.8,0.5,13.4,0.5c3,0,8.4-0.2,16.3-0.5V61h-5c-4.5,0-7.3,0.8-8.3,2.3
			c-1,1.6-1.5,7.1-1.5,16.8v55.8c0,12.4,0.5,19.5,1.6,21.4c1,1.8,4,2.7,8.8,2.7h4.4v4.8c-7.1-0.4-13.8-0.5-20.3-0.5
			c-7.1,0-14.6,0.2-22.4,0.5V160h5c4,0,6.5-0.9,7.3-2.6s1.3-9.3,1.3-22.6V72.7z"/>
		<path id="XMLID_46_" d="M231.6,127.9c0.3,10,2.8,17.6,7.7,22.8c4.9,5.2,11.3,7.8,19.2,7.8c3.6,0,7.1-0.6,10.6-1.8
			c3.5-1.2,7-2.9,10.4-5.3l1.3,1.1l-2.4,6.4c-4.2,2.4-8.6,4.3-13.1,5.5c-4.5,1.2-9.1,1.8-13.8,1.8c-10.3,0-18.7-3.3-25-9.8
			c-6.3-6.5-9.5-15.4-9.5-26.6c0-8.6,1.8-16,5.3-22.2c2.3-4.1,6.7-7.9,13-11.5c6.3-3.5,12.4-5.3,18.4-5.3c9,0,16.2,2.6,21.4,7.9
			c5.3,5.3,7.9,12.7,7.9,22.2l-0.2,4.5c-3.4,0.8-6.6,1.3-9.6,1.6c-5.4,0.4-13,0.6-22.6,0.6H231.6z M231.7,122.2
			c7.9,0.4,16.6,0.5,26.1,0.5c3.8,0,7.5-0.2,11.1-0.5v-4.3c0-4.5-0.9-8.7-2.7-12.8c-1.1-2.5-3.1-4.6-5.9-6.2c-2.8-1.7-6-2.5-9.7-2.5
			c-5.7,0-10.3,2.1-13.7,6.3C233.6,106.9,231.8,113.3,231.7,122.2z"/>
		<path id="XMLID_49_" d="M352.7,95.7V67.9c0-3.2-0.4-5.2-1.1-6c-0.7-0.8-2.3-1.2-4.9-1.2h-6.6v-4.6c9.1-0.6,17.6-2.5,25.4-5.6
			l1.4,0.9c-0.4,5.2-0.7,11.5-0.9,18.8l-0.3,20.3l-0.2,6.6v45.6c0,8.5,0.3,13.2,0.8,14.2c0.8,1.4,2.9,2.3,6.3,2.8l5.4,0.7v4.4
			c-6.3-0.5-11.8-0.7-16.6-0.7c-0.9,0-4.1,0.2-9.7,0.7c0.4-3.4,0.6-8.3,0.8-14.7c-4.3,3.3-9.8,8-16.5,14.1
			c-4.3,1.4-8.1,2.1-11.4,2.1c-8.6,0-15.8-3.2-21.6-9.7c-5.8-6.5-8.7-15.1-8.7-26c0-6.8,1.1-12.5,3.4-17.3c2.2-4.8,4.9-8.3,8-10.4
			c3.1-2.2,7.9-4.9,14.5-8.2c5-2.5,9.7-3.7,14-3.7c2.9,0,5.9,0.4,9,1.1C346.3,92.9,349.5,94.1,352.7,95.7z M352.7,108.8
			c-3.5-3.8-7.2-6.6-10.9-8.5c-3.8-1.9-7.7-2.8-11.9-2.8c-6.7,0-12,2.4-16.1,7.3c-4.1,4.9-6.1,12-6.1,21.4c0,9.5,2.3,17,7,22.4
			c4.6,5.4,10.3,8.1,17,8.1c4.1,0,7.8-1.1,11.2-3.4c3.4-2.3,5.9-5.2,7.5-8.8c1.6-3.6,2.4-9.3,2.4-17.1V108.8z"/>
	</g>
</g>
<g id="XMLID_1_">
	<g id="XMLID_4_">
		<path id="XMLID_7_" d="M708.8,79.8l-37.2,77.4c-13.9,29.1-25.4,54.5-34.3,76.2h-5c-3.1-7.4-11.9-26.5-26.6-57.3l-44.8-92.8V180
			c0,22.5,0.9,35.3,2.7,38.4c1.8,3,7.4,4.6,16.8,4.6h4.7v7.9c-11.6-0.6-21.1-0.9-28.3-0.9c-5.3,0-15.8,0.3-31.5,0.9V223h8.1
			c5.5,0,9.2-0.8,11-2.4c1.8-1.6,3-4.5,3.4-8.6c1.1-11.7,1.6-24.3,1.6-37.8v-70.8c0-17.1-0.4-28.4-1.1-33.9c-0.3-2.8-1.6-5-3.7-6.5
			c-2.1-1.5-6.4-2.3-12.7-2.3h-6.6v-7.9c14.5,0.6,23.7,0.9,27.4,0.9c4.8,0,11.5-0.3,20.3-0.9c10.1,22.5,21.8,47.2,35,74.3l33,67.8
			l30.4-62.7c10.7-22,22.9-48.4,36.6-79.3c10.4,0.6,17.8,0.9,22,0.9c4.9,0,13.8-0.3,26.7-0.9v7.9h-8.2c-7.4,0-11.9,1.3-13.5,3.8
			c-1.6,2.5-2.5,11.7-2.5,27.5v91.5c0,20.4,0.9,32,2.6,35c1.7,3,6.5,4.5,14.4,4.5h7.2v7.9c-11.6-0.6-22.7-0.9-33.3-0.9
			c-11.7,0-23.9,0.3-36.7,0.9V223h8.3c6.6,0,10.6-1.4,12-4.3c1.4-2.9,2.1-15.2,2.1-37.1V79.8z"/>
		<path id="XMLID_9_" d="M818.6,145.8v30.7l0.1,17.7c0,11,0.1,19.1,0.4,24.2c12.2,0.9,25.3,1.4,39.2,1.4c9.4,0,17.2-0.4,23.6-1.3
			c4.1-0.5,8.4-1.6,13-3.3c2.1-7.3,4.2-16.5,6.4-27.5h8.3c-2.3,18.3-3.4,30.5-3.4,36.7l0.3,5.6c-9.6,0.8-19,1.3-28.3,1.3l-19.7-0.4
			c-21.7-0.6-37.6-0.9-47.8-0.9c-9.8,0-22.7,0.3-38.9,0.9V223h3.9c7.3,0,11.8-0.7,13.7-2.1c1.9-1.4,3.1-4.8,3.8-10
			c0.6-5.3,0.9-16.9,0.9-34.8v-68.7c0-11.3-0.3-20.5-0.8-27.7c-0.5-7.2-1.1-11.5-1.8-12.8c-0.6-1.4-1.5-2.4-2.7-3.2
			c-1.2-0.8-4.8-1.4-10.8-2l-9.6-1v-7.9h13.5l13.3,0.4c7.4,0.3,13.1,0.4,16.9,0.4l48.1-0.7l22.8-0.1c7.8-0.1,15.6,0.2,23.5,0.9
			c-3.2,9.9-4.9,22.8-5.3,38.7h-8.5c0-9.2-0.5-16.8-1.4-22.9c-9.8-3.7-21.9-5.5-36.3-5.5c-11.4,0-23.4,0.5-35.9,1.5
			c0.1,7.8,0,15.7-0.2,23.5l-0.3,19.2v25.4c8.3,0.6,15.6,0.9,21.9,0.9c19.9,0,31.1-0.7,33.7-2.1c2.6-1.4,3.9-5.7,3.9-12.8v-8.1h8.5
			c-0.6,12.6-0.9,22.7-0.9,30.2c0,7.9,0.3,17.3,0.9,28h-8.5v-7.3c0-8-1.6-12.9-4.7-14.7c-3.1-1.8-14.2-2.7-33.1-2.7
			C833.4,144.9,826.1,145.2,818.6,145.8z"/>
		<path id="XMLID_11_" d="M946.2,218.3c1.3-12.9,2-35.5,2-67.8v-36.3c0-14.9-0.5-27.7-1.5-38.4c-0.6-6.3-1.4-9.9-2.3-10.9
			c-1-1-4.4-1.9-10.3-2.8l-10-1.5v-7.9c13.8,0.4,23,0.6,27.8,0.6l33.7-0.2l27.4-0.5c11-0.2,22.3,0.9,33.9,3.3
			c11.6,2.3,22.1,7,31.5,14.1c9.4,7.1,16.6,15.9,21.5,26.5c4.9,10.6,7.4,22.9,7.4,36.9c0,28.2-9.5,51.5-28.5,70
			c-19,18.4-43.8,27.7-74.4,27.7l-15.4-0.4c-15.1-0.6-24.7-0.9-28.7-0.9c-6.8,0-15.4,0.5-25.8,1.5v-6L946.2,218.3z M973.2,217.7
			c11.3,1.7,21.2,2.5,29.8,2.5c23.4,0,41.5-6,54.4-18c15.6-14.6,23.4-35.9,23.4-63.8c0-24.4-6.5-42.9-19.5-55.7
			c-13-12.8-32-19.2-57-19.2c-8.8,0-19.1,0.9-31.2,2.6c-1,8-1.5,17.1-1.5,27.3v81.9C971.7,190.4,972.2,204.5,973.2,217.7z"/>
		<path id="XMLID_14_" d="M1222.2,81v86.5c0,19.7,0.4,33.4,1.1,41.2c0.6,5.9,1.6,9.5,3,10.8c1.4,1.3,5.4,2.2,12,2.8l8.1,0.6v7.9
			c-9.1-0.6-17.4-0.9-24.7-0.9c-5.1,0-16.8,0.3-35.1,0.9V223h9c5.4,0,9-0.8,10.6-2.3c1.7-1.5,2.7-4.5,3.1-8.9
			c0.9-9.2,1.4-21.7,1.4-37.4v-62.2c0-11.7-0.1-23.2-0.4-34.7c-0.2-4.8-0.8-8.2-1.9-10c-1.1-1.8-2.8-3.4-4.9-4.8
			c-2.2-1.4-5.2-2.1-9.1-2.1h-7.8v-7.9c10.6,0.6,18.7,0.9,24.3,0.9c6,0,12.6-0.3,19.8-0.9c8.3,10.1,16,19.9,23.3,29.5
			c7.3,9.6,14.9,19.2,22.7,28.9l42.8,52.6c15.4,18.9,26.6,32,33.4,39.3v-80.4c0-33.6-0.6-52-1.8-55.1c-1.2-3.1-6-5.1-14.5-5.9
			l-9.4-0.9v-7.9c13.4,0.6,23.9,0.9,31.3,0.9c7.8,0,17.8-0.3,30-0.9v7.9h-9.6c-7.8,0-12.2,2.6-13.4,7.8c-0.8,3.4-1.1,21.7-1.1,54.8
			v56.5c0,15.2,0.7,33.3,2,54.4c-11.3-1.8-17.9-3-19.8-3.8c-1.8-0.8-3.6-2.1-5.3-3.9c-9.3-10.3-19-21.7-29.2-34.2L1222.2,81z"/>
		<path id="XMLID_16_" d="M1399.6,141.7c0-27.5,8.8-49.6,26.6-66.3c17.7-16.8,41.3-25.2,70.8-25.2c28.9,0,51.5,7.8,67.9,23.3
			c16.4,15.6,24.6,36.2,24.6,62c0,27.8-9.5,51-28.6,69.7c-19,18.7-43,28-72,28c-18.1,0-33.7-3.7-46.8-11
			c-13.1-7.3-23.5-18.1-31.1-32.2C1403.4,176.1,1399.6,159.9,1399.6,141.7z M1425.1,131.5c0,18.9,3.2,35.3,9.7,49.3
			c6.5,14,15.1,24.5,26,31.4c10.9,7,23.3,10.5,37.2,10.5c12.9,0,24.3-3,33.9-8.9c9.7-5.9,17.3-14.8,22.9-26.5
			c5.6-11.8,8.3-26.1,8.3-42.9c0-17.7-3.1-32.8-9.2-45.4c-6.1-12.6-14.6-22-25.2-28.4c-10.7-6.3-23.3-9.5-38-9.5
			c-13.4,0-24.9,2.8-34.6,8.4c-9.7,5.6-17.3,13.8-22.8,24.6C1427.8,104.8,1425.1,117.3,1425.1,131.5z"/>
		<path id="XMLID_21_" d="M1687.2,64.1c-0.9,12.5-1.4,25.7-1.4,39.6V175c0,26.5,0.7,41.2,2,43.9c1.3,2.7,6.1,4.1,14.3,4.1h9.4v7.9
			c-14.8-0.6-27.3-0.9-37.6-0.9c-10.3,0-22.8,0.3-37.3,0.9V223h10.5c5.5,0,9.1-0.7,10.8-2.2c1.7-1.5,2.7-4.3,3.1-8.6
			c0.8-9.8,1.3-22.4,1.3-37.8v-71.5c0-14.1-0.3-27-0.9-38.8h-12.7c-20.6,0-31.9,0.5-34,1.4c-2.1,1-3.5,4.7-4.1,11.2l-1.7,16.8h-7.9
			l0.2-14.9c0-6-0.5-14.6-1.5-25.9c45.1,0.6,71.6,0.9,79.5,0.9l69.2-0.9c-1.6,14.1-2.5,27.7-2.8,40.8h-7.9l-1.3-16.4
			c-0.5-5.7-1.2-9-2.1-10.1c-0.9-1-3-1.7-6.1-1.9c-9.2-0.7-19.6-1-31.3-1H1687.2z"/>
		<path id="XMLID_23_" d="M1809.3,145.8v30.7l0.1,17.7c0,11,0.1,19.1,0.4,24.2c12.2,0.9,25.3,1.4,39.2,1.4c9.4,0,17.2-0.4,23.6-1.3
			c4.1-0.5,8.4-1.6,13-3.3c2.1-7.3,4.2-16.5,6.4-27.5h8.3c-2.3,18.3-3.4,30.5-3.4,36.7l0.3,5.6c-9.6,0.8-19,1.3-28.3,1.3l-19.7-0.4
			c-21.7-0.6-37.6-0.9-47.8-0.9c-9.8,0-22.7,0.3-38.9,0.9V223h3.9c7.3,0,11.8-0.7,13.7-2.1c1.9-1.4,3.1-4.8,3.8-10
			c0.6-5.3,0.9-16.9,0.9-34.8v-68.7c0-11.3-0.3-20.5-0.8-27.7c-0.5-7.2-1.1-11.5-1.8-12.8c-0.6-1.4-1.5-2.4-2.7-3.2
			c-1.2-0.8-4.8-1.4-10.8-2l-9.6-1v-7.9h13.5l13.3,0.4c7.4,0.3,13.1,0.4,16.9,0.4l48.1-0.7l22.8-0.1c7.8-0.1,15.6,0.2,23.5,0.9
			c-3.2,9.9-4.9,22.8-5.3,38.7h-8.5c0-9.2-0.5-16.8-1.4-22.9c-9.8-3.7-21.9-5.5-36.3-5.5c-11.4,0-23.4,0.5-35.9,1.5
			c0.1,7.8,0,15.7-0.2,23.5l-0.3,19.2v25.4c8.3,0.6,15.6,0.9,21.9,0.9c19.9,0,31.1-0.7,33.7-2.1c2.6-1.4,3.9-5.7,3.9-12.8v-8.1h8.5
			c-0.6,12.6-0.9,22.7-0.9,30.2c0,7.9,0.3,17.3,0.9,28h-8.5v-7.3c0-8-1.6-12.9-4.7-14.7c-3.1-1.8-14.2-2.7-33.1-2.7
			C1824.1,144.9,1816.8,145.2,1809.3,145.8z"/>
	</g>
	<g id="XMLID_2_">
		<g id="XMLID_238_">
			<path id="XMLID_258_" d="M691,383.6l-0.8-16.9c-5.6-3.7-11.5-6.5-17.7-8.3c-6.2-1.8-12.6-2.8-19.3-2.8c-17.1,0-30.8,5.2-41,15.6
				c-10.3,10.4-15.4,24.3-15.4,41.6c0,12.2,2.6,23.1,7.8,32.6c5.2,9.6,12.6,17.1,22.2,22.7c9.6,5.6,19.8,8.3,30.5,8.3
				c8.5,0,16.9-1,25.1-2.9c6.2-1.5,12.4-4.5,18.7-9.1l2,1.9c-1.3,2.9-2.6,5.9-3.7,8.8c-7.4,3.7-14.8,6.4-22.3,8.3
				c-7.5,1.9-15,2.8-22.6,2.8c-15.6,0-29.2-3-41-9c-11.8-6-20.9-14.3-27.2-24.9c-6.3-10.6-9.5-22.6-9.5-35.9
				c0-13.3,3.2-25.3,9.6-35.8c6.4-10.5,15.4-18.7,27.1-24.5c11.7-5.8,26-8.7,43-8.7c8.9,0,19.4,1.5,31.3,4.4
				c5.9,1.4,10.8,2.4,14.5,3.1c-2.8,6.8-4.5,16.3-4.9,28.6H691z"/>
			<path id="XMLID_255_" d="M711.1,416.8c0-20.8,6.7-37.6,20.1-50.3c13.4-12.7,31.3-19.1,53.6-19.1c21.9,0,39.1,5.9,51.5,17.7
				c12.4,11.8,18.7,27.5,18.7,47c0,21.1-7.2,38.7-21.6,52.8c-14.4,14.2-32.6,21.2-54.6,21.2c-13.7,0-25.6-2.8-35.5-8.3
				c-9.9-5.6-17.8-13.7-23.5-24.4C714,442.8,711.1,430.6,711.1,416.8z M730.4,409c0,14.3,2.5,26.7,7.4,37.3
				c4.9,10.6,11.5,18.5,19.7,23.8c8.2,5.3,17.6,7.9,28.2,7.9c9.8,0,18.4-2.2,25.7-6.7c7.3-4.5,13.1-11.2,17.3-20.1
				c4.2-8.9,6.3-19.8,6.3-32.5c0-13.4-2.3-24.9-7-34.4c-4.7-9.5-11-16.7-19.1-21.5c-8.1-4.8-17.7-7.2-28.8-7.2
				c-10.1,0-18.9,2.1-26.2,6.4c-7.3,4.2-13.1,10.5-17.3,18.6C732.5,388.8,730.4,398.3,730.4,409z"/>
			<path id="XMLID_253_" d="M1003.1,369.9l-28.2,58.7c-10.6,22-19.2,41.3-26,57.7h-3.8c-2.3-5.6-9.1-20.1-20.1-43.4l-34-70.4v73.3
				c0,17.1,0.7,26.8,2,29.1c1.4,2.3,5.6,3.5,12.7,3.5h3.5v6c-8.8-0.4-16-0.7-21.5-0.7c-4,0-11.9,0.2-23.9,0.7v-6h6.2
				c4.2,0,7-0.6,8.3-1.8c1.4-1.2,2.2-3.4,2.6-6.5c0.8-8.9,1.2-18.4,1.2-28.6v-53.7c0-13-0.3-21.5-0.9-25.7c-0.3-2.1-1.2-3.8-2.8-4.9
				c-1.6-1.1-4.8-1.7-9.6-1.7h-5v-6c11,0.4,17.9,0.7,20.8,0.7c3.6,0,8.7-0.2,15.4-0.7c7.7,17,16.5,35.8,26.5,56.3l25,51.4l23.1-47.6
				c8.1-16.6,17.3-36.7,27.7-60.1c7.9,0.4,13.5,0.7,16.7,0.7c3.7,0,10.5-0.2,20.2-0.7v6h-6.2c-5.6,0-9,1-10.3,2.9
				c-1.2,1.9-1.9,8.9-1.9,20.8v69.3c0,15.4,0.7,24.3,2,26.6c1.3,2.3,4.9,3.4,10.9,3.4h5.4v6c-8.8-0.4-17.2-0.7-25.2-0.7
				c-8.9,0-18.1,0.2-27.8,0.7v-6h6.3c5,0,8-1.1,9.1-3.3c1-2.2,1.6-11.6,1.6-28.1V369.9z"/>
			<path id="XMLID_251_" d="M1085.5,359.7c-0.4,9.1-0.7,18.8-0.7,29.1V443c0,19,0.6,29.7,1.7,32c1.1,2.3,4.9,3.4,11.2,3.4h6.5v6
				c-11.2-0.4-20-0.7-26.5-0.7c-5.7,0-15.8,0.2-30.3,0.7v-6h8.5c4,0,6.5-0.5,7.7-1.5c1.1-1,1.9-3,2.2-6c0.3-3,0.7-12.2,1-27.6v-50.7
				l-0.3-19.6c-0.1-8.2-1-13.2-2.6-15c-1.6-1.8-5.5-2.8-11.8-2.8h-4.7v-6c7.9,0.3,17.9,0.5,30.1,0.5c7.1,0,15.1-0.2,23.8-0.6
				c5.8-0.3,10.1-0.4,13.1-0.4c15.3,0,26.4,2.8,33.4,8.3c6.9,5.6,10.3,13.1,10.3,22.6c0,6.9-2,13.5-6,19.9s-9.6,11.5-16.9,15.3
				c-7.3,3.9-15.1,5.8-23.4,5.8c-3.8,0-8.5-0.6-14.2-1.8l-1.9-7.1c5.6,1.4,10.2,2.1,13.9,2.1c8.7,0,15.7-2.6,20.8-7.9
				c5.1-5.3,7.7-12.5,7.7-21.7c0-8.9-2.7-15.8-8.2-20.7c-5.5-5-13.6-7.4-24.4-7.4C1099.4,356.2,1092.7,357.4,1085.5,359.7z"/>
			<path id="XMLID_248_" d="M1260.1,438.8h-54.9l-6.4,15.3c-4.2,10.1-6.4,16.3-6.4,18.6c0,1.5,0.4,2.5,1.2,3.1
				c0.8,0.6,2.8,1.1,6,1.5l9.1,1v6c-6.1-0.4-12.9-0.7-20.5-0.7c-9.1,0-17.1,0.2-24,0.7v-6l2.8-0.1c4.4-0.1,7.3-0.6,8.6-1.4
				c1.3-0.8,2.7-2.7,4.1-5.8c4.5-9.1,9.1-18.9,13.8-29.5l26.1-59.1c7-15.7,11.7-27.1,14.2-34.2h6.5l48,111.7
				c3.2,7.6,5.4,12.2,6.5,13.7c1.1,1.6,2.3,2.7,3.7,3.3c1.4,0.7,4.5,1.1,9.4,1.4v6c-8.2-0.4-16.1-0.7-23.5-0.7
				c-7,0-16.2,0.2-27.8,0.7v-6l9.4-0.6c3.4-0.3,5.3-0.6,6-1c0.9-0.7,1.4-1.6,1.4-2.7c0-1.1-0.9-4.1-2.8-8.9L1260.1,438.8z
				 M1208.8,431h47.8l-23.9-57L1208.8,431z"/>
			<path id="XMLID_246_" d="M1343,370.8v65.6c0,14.9,0.3,25.3,0.9,31.2c0.4,4.5,1.2,7.2,2.2,8.2c1,1,4.1,1.7,9.1,2.1l6.1,0.5v6
				c-6.9-0.4-13.2-0.7-18.7-0.7c-3.9,0-12.7,0.2-26.6,0.7v-6h6.8c4.1,0,6.8-0.6,8.1-1.7c1.3-1.1,2.1-3.4,2.4-6.7
				c0.7-7,1-16.4,1-28.4v-47.1c0-8.9-0.1-17.6-0.3-26.3c-0.1-3.7-0.6-6.2-1.5-7.5c-0.9-1.4-2.1-2.6-3.7-3.7c-1.6-1.1-4-1.6-6.9-1.6
				h-5.9v-6c8,0.4,14.2,0.7,18.4,0.7c4.6,0,9.5-0.2,15-0.7c6.3,7.7,12.2,15.1,17.7,22.3c5.5,7.2,11.3,14.5,17.2,21.9l32.4,39.8
				c11.7,14.3,20.1,24.2,25.3,29.8v-60.9c0-25.5-0.5-39.4-1.4-41.8c-0.9-2.4-4.6-3.9-11-4.5l-7.1-0.7v-6c10.2,0.4,18.1,0.7,23.7,0.7
				c5.9,0,13.5-0.2,22.8-0.7v6h-7.3c-5.9,0-9.3,2-10.1,5.9c-0.6,2.6-0.9,16.4-0.9,41.6v42.8c0,11.5,0.5,25.3,1.5,41.3
				c-8.6-1.3-13.6-2.3-15-2.9c-1.4-0.6-2.7-1.6-4-3c-7-7.8-14.4-16.4-22.1-25.9L1343,370.8z"/>
			<path id="XMLID_244_" d="M1479,478.4h6c5.9,0,9.4-1.4,10.6-4.3c1.2-2.8,1.8-16.5,1.8-40.9v-32.2c0-25.3-0.5-39.2-1.5-41.8
				c-1-2.6-4-3.9-9.1-3.9h-7.7v-6c10.5,0.4,20.9,0.7,31.2,0.7c8.6,0,16.3-0.2,23.3-0.7v6h-7.3c-4.5,0-7.3,0.5-8.5,1.6
				c-1.1,1.1-1.8,3.8-2,8.2c-0.3,6.8-0.5,18.8-0.5,36.1V434c0,24.6,0.5,38.2,1.6,40.6c1.1,2.5,4.5,3.7,10.4,3.7h6.3v6
				c-7.8-0.4-16.3-0.7-25.5-0.7c-10.7,0-20.4,0.2-29,0.7V478.4z"/>
			<path id="XMLID_241_" d="M1543,416.8c0-20.8,6.7-37.6,20.1-50.3c13.4-12.7,31.3-19.1,53.6-19.1c21.9,0,39.1,5.9,51.5,17.7
				c12.4,11.8,18.7,27.5,18.7,47c0,21.1-7.2,38.7-21.6,52.8c-14.4,14.2-32.6,21.2-54.6,21.2c-13.7,0-25.6-2.8-35.5-8.3
				c-9.9-5.6-17.8-13.7-23.5-24.4C1545.9,442.8,1543,430.6,1543,416.8z M1562.2,409c0,14.3,2.5,26.7,7.4,37.3
				c4.9,10.6,11.5,18.5,19.7,23.8c8.2,5.3,17.6,7.9,28.2,7.9c9.8,0,18.4-2.2,25.7-6.7c7.3-4.5,13.1-11.2,17.3-20.1
				c4.2-8.9,6.3-19.8,6.3-32.5c0-13.4-2.3-24.9-7-34.4c-4.7-9.5-11-16.7-19.1-21.5c-8.1-4.8-17.7-7.2-28.8-7.2
				c-10.1,0-18.9,2.1-26.2,6.4c-7.3,4.2-13.1,10.5-17.3,18.6C1564.3,388.8,1562.2,398.3,1562.2,409z"/>
			<path id="XMLID_239_" d="M1722.7,370.8v65.6c0,14.9,0.3,25.3,0.9,31.2c0.4,4.5,1.2,7.2,2.2,8.2c1,1,4.1,1.7,9.1,2.1l6.1,0.5v6
				c-6.9-0.4-13.2-0.7-18.7-0.7c-3.9,0-12.7,0.2-26.6,0.7v-6h6.8c4.1,0,6.8-0.6,8.1-1.7c1.3-1.1,2.1-3.4,2.4-6.7
				c0.7-7,1-16.4,1-28.4v-47.1c0-8.9-0.1-17.6-0.3-26.3c-0.1-3.7-0.6-6.2-1.5-7.5c-0.9-1.4-2.1-2.6-3.7-3.7c-1.6-1.1-4-1.6-6.9-1.6
				h-5.9v-6c8,0.4,14.2,0.7,18.4,0.7c4.6,0,9.5-0.2,15-0.7c6.3,7.7,12.2,15.1,17.7,22.3c5.5,7.2,11.3,14.5,17.2,21.9l32.4,39.8
				c11.7,14.3,20.1,24.2,25.3,29.8v-60.9c0-25.5-0.5-39.4-1.4-41.8c-0.9-2.4-4.6-3.9-11-4.5l-7.1-0.7v-6c10.2,0.4,18.1,0.7,23.7,0.7
				c5.9,0,13.5-0.2,22.8-0.7v6h-7.3c-5.9,0-9.3,2-10.1,5.9c-0.6,2.6-0.9,16.4-0.9,41.6v42.8c0,11.5,0.5,25.3,1.5,41.3
				c-8.6-1.3-13.6-2.3-15-2.9c-1.4-0.6-2.7-1.6-4-3c-7-7.8-14.4-16.4-22.1-25.9L1722.7,370.8z"/>
		</g>
	</g>
	<line id="XMLID_52_" class="st1" x1="526.6" y1="286.9" x2="1899" y2="286.9"/>
</g>
</svg>
